<?xml version="1.0"?>
<svg width="103" height="94" xmlns="http://www.w3.org/2000/svg">
 <!-- Created with Method Draw - http://github.com/duopixel/Method-Draw/ -->

 <g>
  <title>Layer 1</title>

  <metadata transform="matrix(0.6145785853387089,0,0,0.6145785853387089,0,0) " id="svg_11">image/svg+xml</metadata>
  <path fill="#94fffc" fill-rule="evenodd" stroke="#94fffc" stroke-width="1.535443px" d="m48.558762,82.555534l0.056366,-40.861336l14.5103,-0.439278l-0.584854,40.85215c0,0 -6.683868,9.810921 -13.981812,0.448463l0,0zm-6.247387,-64.604811c-6.091118,0.697281 -18.250208,3.758495 -18.311487,17.249945c15.407869,-15.463476 21.995729,-1.2342 21.300692,-2.372581l3.758457,0.245129l0.592178,6.163025l12.528732,-0.341587c0.312614,-4.273315 0.723907,-6.76627 2.504791,-9.957754c2.288574,-2.906433 7.221283,-1.911819 8.535629,-0.641373c0.288849,0.279526 1.099152,1.261856 1.117142,1.588669c0.268753,0.437389 0.442108,0.851471 0.599945,1.121178c1.712555,2.927919 6.025757,2.389147 6.101379,-1.548744l0.229126,-13.175083c0.047104,-3.222784 -4.184845,-3.515829 -5.883484,-1.302389c-0.29895,0.389521 -0.684631,1.057917 -0.985512,1.604059c-1.213745,3.192074 -5.983864,3.032974 -7.866539,1.25322c-1.347198,-1.274109 -1.98558,-1.732422 -1.99691,-3.099314l-16.677235,0.148071c-1.409691,1.411127 -3.062973,3.396017 -5.546906,3.065531l0,0z" id="svg_10"/>
 </g>
</svg>