<?xml version="1.0" encoding="UTF-8" standalone="no"?>
<!-- Created with Inkscape (http://www.inkscape.org/) -->

<svg
   xmlns:dc="http://purl.org/dc/elements/1.1/"
   xmlns:cc="http://creativecommons.org/ns#"
   xmlns:rdf="http://www.w3.org/1999/02/22-rdf-syntax-ns#"
   xmlns:svg="http://www.w3.org/2000/svg"
   xmlns="http://www.w3.org/2000/svg"
   xmlns:sodipodi="http://sodipodi.sourceforge.net/DTD/sodipodi-0.dtd"
   xmlns:inkscape="http://www.inkscape.org/namespaces/inkscape"
   width="48mm"
   height="48mm"
   viewBox="0 0 170.07874 170.07874"
   id="svg8185"
   version="1.1"
   inkscape:version="0.91 r13725"
   sodipodi:docname="screen.svg">
  <defs
     id="defs8187" />
  <sodipodi:namedview
     id="base"
     pagecolor="#ffffff"
     bordercolor="#666666"
     borderopacity="1.0"
     inkscape:pageopacity="0.0"
     inkscape:pageshadow="2"
     inkscape:zoom="2.8284271"
     inkscape:cx="59.917398"
     inkscape:cy="85.14892"
     inkscape:document-units="px"
     inkscape:current-layer="layer1"
     showgrid="true"
     inkscape:window-width="1440"
     inkscape:window-height="853"
     inkscape:window-x="-4"
     inkscape:window-y="-4"
     inkscape:window-maximized="1">
    <inkscape:grid
       type="xygrid"
       id="grid8733" />
  </sodipodi:namedview>
  <metadata
     id="metadata8190">
    <rdf:RDF>
      <cc:Work
         rdf:about="">
        <dc:format>image/svg+xml</dc:format>
        <dc:type
           rdf:resource="http://purl.org/dc/dcmitype/StillImage" />
        <dc:title></dc:title>
      </cc:Work>
    </rdf:RDF>
  </metadata>
  <g
     inkscape:label="Layer 1"
     inkscape:groupmode="layer"
     id="layer1"
     transform="translate(0,-882.28346)">
    <g
       id="g8824"
       transform="matrix(1.4377508,0,0,1.3702008,-43.032667,-346.91297)"
       inkscape:transform-center-x="2.5416107"
       inkscape:transform-center-y="3.0395695">
      <rect
         y="914.59039"
         x="47.077202"
         height="60.593071"
         width="85.492805"
         id="rect8740"
         style="opacity:1;fill:none;fill-opacity:0.87843137;stroke:#94fffc;stroke-width:4.50719309;stroke-linecap:butt;stroke-linejoin:bevel;stroke-miterlimit:4;stroke-dasharray:none;stroke-opacity:1" />
      <g
         id="text8744"
         style="font-style:normal;font-weight:normal;font-size:90.91313171px;line-height:125%;font-family:sans-serif;letter-spacing:0px;word-spacing:0px;fill:#94fffc;fill-opacity:1;stroke:#94fffc;stroke-width:1px;stroke-linecap:butt;stroke-linejoin:miter;stroke-opacity:1"
         transform="scale(0.94583362,1.0572684)">
        <path
           id="path8818"
           style="font-style:normal;font-variant:normal;font-weight:bold;font-stretch:normal;font-size:34.0924263px;font-family:'Prestige Elite Std';-inkscape-font-specification:'Prestige Elite Std Bold';fill:#94fffc;fill-opacity:1;stroke:#94fffc;stroke-opacity:1"
           d="m 64.890814,884.52416 0,1.90917 1.465975,0 2.761486,18.95539 2.045546,0 3.23878,-8.89812 3.238781,8.89812 2.045545,0 2.761487,-18.95539 1.465974,0 0,-1.90917 -6.170729,0 0,1.90917 2.659209,0 -2.147823,14.79612 -0.06818,0 -3.78426,-10.60275 -3.784259,10.60275 -0.06818,0 -2.147823,-14.79612 2.659209,0 0,-1.90917 -6.170729,0 z"
           inkscape:connector-curvature="0" />
        <path
           id="path8820"
           style="font-style:normal;font-variant:normal;font-weight:bold;font-stretch:normal;font-size:34.0924263px;font-family:'Prestige Elite Std';-inkscape-font-specification:'Prestige Elite Std Bold';fill:#94fffc;fill-opacity:1;stroke:#94fffc;stroke-opacity:1"
           d="m 85.332953,884.52416 0,1.90917 1.465974,0 2.761487,18.95539 2.045545,0 3.238781,-8.89812 3.23878,8.89812 2.04555,0 2.76148,-18.95539 1.46598,0 0,-1.90917 -6.170732,0 0,1.90917 2.659212,0 -2.147826,14.79612 -0.06818,0 -3.784259,-10.60275 -3.784259,10.60275 -0.06818,0 -2.147823,-14.79612 2.659209,0 0,-1.90917 -6.170729,0 z"
           inkscape:connector-curvature="0" />
        <path
           id="path8822"
           style="font-style:normal;font-variant:normal;font-weight:bold;font-stretch:normal;font-size:34.0924263px;font-family:'Prestige Elite Std';-inkscape-font-specification:'Prestige Elite Std Bold';fill:#94fffc;fill-opacity:1;stroke:#94fffc;stroke-opacity:1"
           d="m 105.77509,884.52416 0,1.90917 1.46598,0 2.76148,18.95539 2.04555,0 3.23878,-8.89812 3.23878,8.89812 2.04554,0 2.76149,-18.95539 1.46598,0 0,-1.90917 -6.17073,0 0,1.90917 2.65921,0 -2.14783,14.79612 -0.0682,0 -3.78426,-10.60275 -3.78426,10.60275 -0.0682,0 -2.14782,-14.79612 2.65921,0 0,-1.90917 -6.17073,0 z"
           inkscape:connector-curvature="0" />
      </g>
      <g
         transform="translate(0,-2)"
         style="fill:#94fffc;fill-opacity:1;stroke:#94fffc;stroke-opacity:1"
         id="g8782">
        <path
           style="fill:#94fffc;fill-opacity:1;fill-rule:evenodd;stroke:#94fffc;stroke-width:4;stroke-linecap:butt;stroke-linejoin:miter;stroke-miterlimit:4;stroke-dasharray:none;stroke-opacity:1"
           d="M 80,977.36219 70,992.3622 Z"
           id="path8752"
           inkscape:connector-curvature="0"
           sodipodi:nodetypes="ccc" />
        <path
           style="fill:#94fffc;fill-opacity:1;fill-rule:evenodd;stroke:#94fffc;stroke-width:4;stroke-linecap:butt;stroke-linejoin:miter;stroke-miterlimit:4;stroke-dasharray:none;stroke-opacity:1"
           d="m 100,977.36219 10,15.00001 z"
           id="path8754"
           inkscape:connector-curvature="0"
           sodipodi:nodetypes="ccc" />
        <path
           style="fill:#94fffc;fill-opacity:1;fill-rule:evenodd;stroke:#94fffc;stroke-width:4.11894226;stroke-linecap:butt;stroke-linejoin:miter;stroke-miterlimit:4;stroke-dasharray:none;stroke-opacity:1"
           d="m 68.327847,993.30751 43.326443,-0.0223"
           id="path8758"
           inkscape:connector-curvature="0"
           sodipodi:nodetypes="cc" />
      </g>
    </g>
  </g>
</svg>
