<svg width="130" height="110" xmlns="http://www.w3.org/2000/svg">

 <g>
  <title>Layer 1</title>

  <metadata id="svg_27">image/svg+xml</metadata>
  <g id="svg_30">
   <rect transform="matrix(1.12713, 0, 0, 1.07417, -33.7355, -271.963)" fill="none" fill-opacity="0.878431" stroke="#94fffc" stroke-width="4.507193" stroke-linejoin="bevel" stroke-miterlimit="4" id="svg_26" width="85.492805" height="60.593071" x="44.852923" y="264.165971"/>
   <g font-style="normal" font-weight="normal" font-size="90.913132px" font-family="sans-serif" fill="#94fffc" stroke="#94fffc" stroke-width="1px" transform="matrix(1.06607, 0, 0, 1.13569, -33.7355, -963.63)" id="svg_22">
    <path fill="#94fffc" stroke="#94fffc" d="m62.539165,877.480347l0,1.90918l1.465977,0l2.761475,18.955383l2.045532,0l3.2388,-8.898132l3.23877,8.898132l2.045563,0l2.761475,-18.955383l1.465973,0l0,-1.90918l-6.170715,0l0,1.90918l2.65921,0l-2.147827,14.796082l-0.068176,0l-3.784271,-10.602722l-3.784271,10.602722l-0.068176,0l-2.147827,-14.796082l2.65921,0l0,-1.90918l-6.170719,0z" id="svg_25"/>
    <path fill="#94fffc" stroke="#94fffc" d="m82.981247,877.480164l0,1.908997l1.466003,0l2.761505,18.955994l2.045593,0l3.238708,-8.897949l3.2388,8.897949l2.045502,0l2.761993,-18.955994l1.466003,0l0,-1.908997l-6.171204,0l0,1.908997l2.65921,0l-2.147827,14.795959l-0.068176,0l-3.784302,-10.601929l-3.78421,10.601929l-0.068207,0l-2.147797,-14.795959l2.65921,0l0,-1.908997l-6.170715,0l-0.000092,0z" id="svg_24"/>
    <path fill="#94fffc" stroke="#94fffc" d="m103.423355,877.480164l0,1.908997l1.466003,0l2.761993,18.955994l2.044983,0l3.239014,-8.897949l3.238983,8.897949l2.045013,0l2.761993,-18.955994l1.466003,0l0,-1.908997l-6.17099,0l0,1.908997l2.658997,0l-2.14801,14.795959l-0.067993,0l-3.783997,-10.601929l-3.783997,10.601929l-0.069,0l-2.147003,-14.795959l2.658997,0l0,-1.908997l-6.17099,0l0,0z" id="svg_23"/>
   </g>
   <g transform="matrix(1.12713, 0, 0, 1.07417, -33.7355, -271.963)" fill="#94fffc" stroke="#94fffc" id="svg_18">
    <path fill="#94fffc" fill-rule="evenodd" stroke="#94fffc" stroke-width="4" stroke-miterlimit="4" id="svg_21" d="m77.775703,324.006653l-10,15l10,-15z"/>
    <path fill="#94fffc" fill-rule="evenodd" stroke="#94fffc" stroke-width="4" stroke-miterlimit="4" id="svg_20" d="m97.775703,324.006653l10,15l-10,-15z"/>
    <path fill="#94fffc" fill-rule="evenodd" stroke="#94fffc" stroke-width="4.118942" stroke-miterlimit="4" id="svg_19" d="m66.103584,339.952148l43.326416,-0.022278"/>
   </g>
  </g>
 </g>
</svg>